<?xml version="1.0" standalone="no"?>
<!DOCTYPE svg PUBLIC "-//W3C//DTD SVG 20010904//EN"
 "http://www.w3.org/TR/2001/REC-SVG-20010904/DTD/svg10.dtd">
<svg version="1.0" xmlns="http://www.w3.org/2000/svg"
 width="542.000000pt" height="366.000000pt" viewBox="0 0 542.000000 366.000000"
 preserveAspectRatio="xMidYMid meet">

<g transform="translate(0.000000,366.000000) scale(0.100000,-0.100000)"
fill="#000000" stroke="none">
<path d="M2515 3639 c-566 -48 -1093 -403 -1378 -929 -58 -108 -149 -329 -140
-343 3 -6 12 3 20 19 12 26 13 26 8 4 -3 -14 -16 -68 -29 -120 -29 -113 -43
-202 -51 -326 -10 -144 10 -118 23 29 7 73 20 173 31 222 20 95 80 290 86 283
2 -2 -7 -39 -20 -81 -34 -105 -75 -314 -74 -368 1 -24 3 -33 6 -19 25 169 40
238 74 351 41 137 129 326 199 429 239 352 591 604 990 709 162 42 272 54 454
48 195 -6 301 -25 491 -89 551 -185 967 -663 1090 -1250 8 -39 13 -73 11 -77
-2 -3 2 -33 9 -66 14 -71 11 -382 -5 -435 -5 -19 -10 -49 -10 -65 0 -37 -39
-192 -75 -300 -60 -178 -192 -399 -331 -556 -70 -79 -51 -71 36 16 44 44 80
75 80 70 0 -21 -102 -144 -179 -218 -83 -79 -211 -178 -287 -223 -24 -14 -44
-30 -44 -35 0 -5 -25 -23 -55 -40 -94 -53 -60 -44 45 13 154 82 274 172 405
303 123 124 228 258 274 355 15 30 31 62 36 70 5 8 10 17 10 20 1 3 10 25 22
50 131 280 198 617 175 866 -5 49 -6 118 -3 154 l6 65 8 -45 c28 -176 17 -444
-28 -665 -34 -168 -73 -282 -144 -425 -238 -479 -645 -803 -1181 -939 -41 -11
-64 -20 -50 -21 63 -4 -47 -25 -255 -49 l-70 -8 85 -2 c132 -1 317 33 485 91
452 154 830 491 1036 922 66 139 154 404 118 356 -9 -12 -10 -10 -5 10 3 14 6
29 6 33 0 5 4 5 10 2 6 -4 8 7 4 27 -4 26 -3 30 5 18 9 -12 10 -9 5 13 -3 15
-1 33 5 41 6 8 17 77 23 155 26 322 -42 693 -177 960 -275 548 -835 932 -1443
991 -110 11 -207 11 -337 -1z m412 -25 c-3 -3 -12 -4 -19 -1 -8 3 -5 6 6 6 11
1 17 -2 13 -5z m40 -10 c-3 -3 -12 -4 -19 -1 -8 3 -5 6 6 6 11 1 17 -2 13 -5z
m93 -14 c20 -6 21 -8 5 -8 -11 0 -29 3 -40 8 -25 11 1 11 35 0z m130 -36 c45
-14 80 -27 78 -29 -2 -2 -44 9 -93 25 -50 16 -85 29 -78 29 7 1 49 -11 93 -25z
m120 -44 c8 -5 11 -10 5 -10 -5 0 -17 5 -25 10 -8 5 -10 10 -5 10 6 0 17 -5
25 -10z m45 -20 c3 -6 -1 -7 -9 -4 -18 7 -21 14 -7 14 6 0 13 -4 16 -10z m50
-28 c-3 -3 -11 0 -18 7 -9 10 -8 11 6 5 10 -3 15 -9 12 -12z m40 -20 c-3 -3
-11 0 -18 7 -9 10 -8 11 6 5 10 -3 15 -9 12 -12z m273 -167 c53 -40 122 -99
152 -131 53 -56 53 -56 -19 10 -62 58 -136 116 -251 199 -22 16 -22 16 -2 7
12 -6 66 -44 120 -85z m462 -524 c42 -73 61 -114 43 -96 -13 13 -95 165 -89
165 3 0 23 -31 46 -69z m109 -231 c0 -8 -13 14 -29 49 -17 35 -30 66 -30 70 1
12 59 -105 59 -119z m-3188 -17 c-12 -20 -14 -14 -5 12 4 9 9 14 11 11 3 -2 0
-13 -6 -23z m3209 -38 c0 -5 -5 -3 -10 5 -5 8 -10 20 -10 25 0 6 5 3 10 -5 5
-8 10 -19 10 -25z m-3261 -14 c-6 -18 -13 -30 -15 -28 -2 2 1 18 7 36 6 18 13
30 15 28 2 -2 -1 -18 -7 -36z m3300 -111 c0 -10 -3 -8 -9 5 -12 27 -12 43 0
25 5 -8 9 -22 9 -30z m58 -132 c-3 -8 -6 -5 -6 6 -1 11 2 17 5 13 3 -3 4 -12
1 -19z m-20 -40 c-3 -8 -6 -5 -6 6 -1 11 2 17 5 13 3 -3 4 -12 1 -19z m-168
-1250 c-25 -47 -114 -175 -170 -243 -103 -127 -298 -299 -414 -364 -22 -12
-29 -14 -16 -5 13 10 60 45 105 78 163 121 349 319 453 484 45 70 66 95 42 50z
m-1039 -808 c-8 -5 -22 -9 -30 -9 -10 0 -8 3 5 9 27 12 43 12 25 0z m-70 -20
c-8 -5 -26 -9 -40 -9 l-25 1 25 8 c14 4 32 8 40 9 13 1 13 0 0 -9z"/>
<path d="M2642 2657 c-34 -41 -19 -131 26 -148 42 -16 76 16 80 74 4 66 -10
87 -57 87 -21 0 -43 -6 -49 -13z"/>
<path d="M2593 2454 c-42 -25 -43 -26 -43 -80 l0 -54 140 0 140 0 0 48 c0 55
-4 61 -52 91 l-37 22 -11 -41 c-12 -46 -33 -44 -28 3 2 18 -2 32 -9 34 -9 3
-13 -7 -13 -31 0 -50 -16 -53 -32 -6 l-13 40 -42 -26z"/>
<path d="M2604 2201 c-103 -63 -120 -190 -38 -275 100 -103 263 -49 298 97 14
61 -32 150 -95 182 -40 21 -127 19 -165 -4z m152 -27 c72 -34 97 -136 51 -205
-79 -117 -257 -61 -257 80 0 108 106 172 206 125z"/>
<path d="M2680 2147 c0 -7 -9 -18 -20 -25 -33 -20 -26 -60 15 -79 53 -25 47
-48 -12 -43 -30 2 -29 -7 3 -36 29 -27 34 -29 34 -11 0 7 9 18 20 25 33 20 26
59 -15 84 -40 23 -41 44 -1 41 31 -2 33 10 6 37 -23 23 -30 25 -30 7z"/>
<path d="M2280 2063 c-41 -52 -9 -143 50 -143 40 0 60 28 60 87 0 36 -5 55
-18 66 -28 26 -67 21 -92 -10z"/>
<path d="M3012 2074 c-18 -12 -22 -25 -22 -69 0 -44 4 -57 22 -69 49 -35 92
-10 103 59 12 72 -48 118 -103 79z"/>
<path d="M4412 2040 c0 -14 2 -19 5 -12 2 6 2 18 0 25 -3 6 -5 1 -5 -13z"/>
<path d="M983 1890 c0 -47 2 -66 4 -42 2 23 2 61 0 85 -2 23 -4 4 -4 -43z"/>
<path d="M2227 1865 c-35 -24 -37 -28 -37 -80 l0 -55 140 0 140 0 0 48 c0 51
-9 69 -50 96 -34 22 -37 21 -50 -19 -14 -41 -35 -36 -26 6 5 24 2 29 -14 29
-16 0 -19 -5 -14 -29 9 -42 -12 -47 -26 -6 -6 19 -15 35 -18 35 -4 0 -24 -11
-45 -25z"/>
<path d="M2947 1865 c-35 -24 -37 -28 -37 -80 l0 -55 140 0 140 0 0 55 c0 52
-2 56 -37 80 -21 14 -40 25 -44 25 -3 0 -11 -19 -18 -42 -11 -35 -15 -39 -23
-24 -5 9 -7 28 -4 42 5 18 2 24 -9 24 -10 0 -15 -7 -14 -17 6 -61 -13 -72 -31
-18 -6 19 -15 35 -18 35 -4 0 -24 -11 -45 -25z"/>
<path d="M2178 1653 c6 -2 18 -2 25 0 6 3 1 5 -13 5 -14 0 -19 -2 -12 -5z"/>
<path d="M2228 1653 c7 -3 16 -2 19 1 4 3 -2 6 -13 5 -11 0 -14 -3 -6 -6z"/>
<path d="M1550 1390 l0 -110 66 0 c62 0 65 1 62 23 -2 18 -10 23 -40 25 -51 4
-53 32 -3 32 31 0 35 3 35 25 0 22 -4 25 -35 25 -28 0 -35 4 -35 20 0 17 7 20
41 20 36 0 40 2 37 23 -3 20 -9 22 -65 25 l-63 3 0 -111z"/>
<path d="M1717 1493 c-4 -3 -7 -53 -7 -110 l0 -103 30 0 c29 0 29 0 32 68 l3
67 40 -67 c36 -62 42 -68 72 -68 l33 0 0 110 0 110 -25 0 c-14 0 -26 -6 -26
-12 -1 -7 -2 -34 -3 -60 0 -25 -4 -49 -7 -52 -3 -3 -23 23 -44 59 -32 55 -42
65 -65 65 -15 0 -30 -3 -33 -7z"/>
<path d="M1960 1390 l0 -110 65 0 c63 0 65 1 65 25 0 22 -4 25 -38 25 -28 0
-39 4 -39 15 0 10 11 15 34 15 29 0 33 3 33 25 0 21 -5 25 -29 25 -27 0 -47
20 -34 34 4 3 21 6 40 6 29 0 33 3 33 25 0 24 -2 25 -65 25 l-65 0 0 -110z"/>
<path d="M2130 1390 l0 -110 25 0 c23 0 25 4 25 40 0 22 3 40 8 40 4 0 17 -18
30 -40 18 -33 28 -40 52 -40 17 0 30 2 30 5 0 3 -14 24 -30 47 -30 40 -30 41
-10 55 20 14 27 57 12 80 -11 18 -58 33 -103 33 l-39 0 0 -110z m97 45 c7 -19
4 -22 -22 -27 -14 -2 -21 3 -23 20 -3 17 2 22 18 22 11 0 23 -7 27 -15z"/>
<path d="M2368 1484 c-71 -38 -76 -138 -8 -191 20 -16 92 -16 109 0 11 10 14
10 18 0 3 -7 13 -13 24 -13 17 0 19 8 19 60 l0 60 -50 0 c-43 0 -50 -3 -50
-20 0 -13 7 -20 20 -20 28 0 25 -18 -5 -32 -19 -9 -29 -7 -50 6 -22 15 -26 23
-23 59 3 35 7 43 31 51 20 7 34 7 48 -2 24 -15 59 -7 59 13 0 19 -52 45 -87
45 -15 -1 -40 -7 -55 -16z"/>
<path d="M2554 1473 c8 -16 24 -41 35 -58 15 -21 21 -46 21 -82 0 -49 2 -53
24 -53 21 0 24 5 28 54 3 38 14 68 36 103 18 27 32 53 32 56 0 4 -11 7 -25 7
-18 0 -31 -9 -43 -30 -21 -37 -27 -37 -49 0 -13 22 -25 30 -45 30 -28 0 -28
-1 -14 -27z"/>
<path d="M2864 1481 c-94 -57 -52 -201 60 -201 44 0 79 18 96 50 9 16 6 20
-14 26 -17 4 -31 1 -41 -10 -20 -20 -69 -21 -84 -2 -7 8 -11 32 -9 53 2 31 8
39 30 47 22 8 33 6 56 -11 20 -15 33 -18 50 -12 21 8 22 10 7 32 -31 48 -98
60 -151 28z"/>
<path d="M3110 1493 c-74 -29 -93 -134 -33 -189 36 -33 106 -33 147 -1 23 19
30 33 33 74 5 45 2 54 -23 82 -29 32 -88 49 -124 34z m80 -63 c39 -39 14 -100
-41 -100 -30 0 -59 31 -59 62 0 24 35 58 60 58 11 0 29 -9 40 -20z"/>
<path d="M3290 1391 l0 -111 55 0 c31 0 69 7 85 15 55 29 64 129 16 174 -19
18 -41 24 -90 28 l-66 6 0 -112z m114 43 c19 -18 21 -75 4 -92 -7 -7 -22 -12
-35 -12 -21 0 -23 4 -23 60 0 53 2 60 19 60 11 0 27 -7 35 -16z"/>
<path d="M3510 1390 l0 -110 65 0 c63 0 65 1 65 25 0 23 -4 25 -40 25 -29 0
-40 4 -40 15 0 10 11 15 35 15 31 0 35 3 35 25 0 22 -4 25 -35 25 -28 0 -35 4
-35 20 0 17 7 20 40 20 36 0 40 3 40 25 0 24 -2 25 -65 25 l-65 0 0 -110z"/>
<path d="M3700 1487 c-48 -24 -39 -89 15 -107 40 -13 68 -37 60 -51 -10 -14
-45 -10 -51 6 -7 17 -32 19 -54 5 -13 -9 -11 -14 13 -35 53 -47 147 -25 147
34 0 33 -20 53 -74 75 -37 15 -39 18 -23 33 15 16 18 15 36 -1 13 -11 27 -15
40 -11 28 8 26 19 -5 44 -30 24 -67 27 -104 8z"/>
<path d="M1159 935 c5 -11 17 -29 26 -40 l16 -20 -10 20 c-5 11 -17 29 -26 40
l-16 20 10 -20z"/>
<path d="M1210 846 c0 -2 8 -10 18 -17 15 -13 16 -12 3 4 -13 16 -21 21 -21
13z"/>
<path d="M1260 776 c0 -2 8 -10 18 -17 15 -13 16 -12 3 4 -13 16 -21 21 -21
13z"/>
<path d="M1290 736 c0 -2 8 -10 18 -17 15 -13 16 -12 3 4 -13 16 -21 21 -21
13z"/>
<path d="M1330 687 c0 -2 15 -16 33 -33 l32 -29 -29 33 c-28 30 -36 37 -36 29z"/>
<path d="M1410 595 c13 -14 26 -25 28 -25 3 0 -5 11 -18 25 -13 14 -26 25 -28
25 -3 0 5 -11 18 -25z"/>
<path d="M3759 593 c-13 -16 -12 -17 4 -4 16 13 21 21 13 21 -2 0 -10 -8 -17
-17z"/>
<path d="M1540 475 c13 -14 26 -25 28 -25 3 0 -5 11 -18 25 -13 14 -26 25 -28
25 -3 0 5 -11 18 -25z"/>
<path d="M2848 83 c7 -3 16 -2 19 1 4 3 -2 6 -13 5 -11 0 -14 -3 -6 -6z"/>
<path d="M2895 70 c-34 -6 -36 -7 -10 -8 17 0 48 3 70 7 33 7 35 9 10 8 -16 0
-48 -3 -70 -7z"/>
<path d="M2618 53 c7 -3 16 -2 19 1 4 3 -2 6 -13 5 -11 0 -14 -3 -6 -6z"/>
<path d="M2718 53 c17 -2 47 -2 65 0 17 2 3 4 -33 4 -36 0 -50 -2 -32 -4z"/>
</g>
</svg>
